<?xml version="1.0" standalone="no"?>
<!DOCTYPE svg PUBLIC "-//W3C//DTD SVG 1.1//EN" "http://www.w3.org/Graphics/SVG/1.1/DTD/svg11.dtd">
<svg xmlns="http://www.w3.org/2000/svg">
<metadata>Generated by Fontastic.me</metadata>
<defs>
<font id="vicons" horiz-adv-x="512">
<font-face font-family="vicons" units-per-em="512" ascent="480" descent="-32"/>
<missing-glyph horiz-adv-x="512" />

<glyph unicode="&#73;" d="M403 29l-58 390 0 2-2 1c-12 9-13 28-12 43 1 17 5 32 5 32l2 5-42 10-1-4c-4-13-11-22-22-26-9-4-16-4-17-4l0 0c-1 0-9 0-18 4-10 4-18 13-21 26l-2 4-36-9-6-1 2-5c0 0 5-15 6-32 1-15-1-34-13-43l-2-1-58-392 0-1 0 0c0-1 1-6 7-11 7-5 20-9 36-10l1 0c1 1 22 1 34 2l0-7 4-1c1 0 11-1 24-1 8 0 14 0 21 1l0 0 0 0c1 0 23 6 39 6 3 0 5-1 7-1l0 0c1 0 14-2 28-2 3 0 5 0 7 0l0 0c1 0 5 1 10 2 5 2 9 4 11 7 4-1 12-1 21-1 19 0 33 2 41 5 3 1 7 5 4 12z m-169 444c11-5 20-5 22-5 0 0 0 0 0 0 0 0 0 0 0 0 2 0 11 0 21 5 7 3 12 7 17 12-1-2-2-4-3-6-7-14-19-21-35-21-17 0-29 7-36 21-1 2-2 4-3 6 5-5 11-9 17-12z m124-451c-10 0-18 0-21 0-4 23-38 199-38 199 7-72 30-202 30-202 0-1-1-2-6-4-4-1-7-1-8-1-2 0-4 0-6 0-12 0-26 2-26 2-3 0-6 0-9 0-17 0-38-4-41-5-6-1-12-1-19-1-7 0-14 0-18 1 0 0 21 161 24 237 0 0-26-203-30-228-9-2-35-3-38-3-17 1-26 5-30 7-3 2-4 4-4 4l57 387c7 5 11 13 14 23 2 8 2 17 2 28-1 12-4 23-5 29l23 5c0 0 2-15 7-23 5-11 17-24 40-24 23 0 34 13 40 24 4 9 6 23 7 23l23-5c-2-6-4-17-5-29-1-11 0-20 2-28 2-10 7-18 13-23l58-387 0-1 0 0c0-1 0-1 0-1-7-3-19-4-36-4z"/>
<glyph unicode="&#66;" d="M477 192l35 35-146 205-54 12-13 19-2 4-4-3c-1 0-10-4-37-4-27 0-36 4-37 4l-3 3-16-23-54-12-146-205 35-35 109 116 6-69-25-194 262 0-25 194 6 69z m22 36l-22-22-112 118c-6 32-6 58-5 74 1 8 2 15 3 20z m-193 208c-2-5-5-14-8-23-9-22-17-30-22-33 0 1-3 4-8 14-3 5-5 9-6 11 14 13 23 27 28 36 2 4 4 8 5 11z m-51-28c0 0 0 0 0 0-13 11-21 22-26 31 5-1 14-2 27-2 13 0 22 1 27 2-5-9-14-20-26-31 0-1-1-1 0-2-1 0-2 1-2 2z m-38 44c1-3 3-7 5-11 5-9 14-23 28-36-1-2-3-6-6-11-5-10-8-13-8-14-5 3-13 11-22 33-3 9-6 18-8 23z m73 1c-1-2-2-5-4-8-3-1-13-3-30-3-17 0-27 2-30 3-2 3-3 6-4 8 6-1 17-3 34-3 17 0 28 2 34 3z m-255-247l-22 22 136 190c1-5 2-12 3-20 1-16 1-42-5-74z m117-25l13-14 56 56 0 11-10 10-58-58 6 52 1 1-7 90c5 30 5 54 4 69-1 12-3 20-4 25l49 11c1-5 4-14 8-23 8-20 16-32 24-35 1-1 1-1 2-1 0 0 0 0 1 1 2 0 5 3 12 15 2 4 3 8 5 11 3-4 4-8 4-9l0-338-122 0z m5 2l54 54 5-5 0-7-51-51z m219-128l-113 0 0 337c0 0 0 0 1-1 6-12 9-15 11-16 1 0 1 0 1 0 1 0 2 0 2 1 8 3 16 15 24 35 4 9 7 18 8 23l49-11c-1-5-2-13-3-25-3-25 0-50 3-69l-6-90-1 0 7-53-58 58-10-10 0-11 56-56 13 14z m-21 128l-8-9-51 51 0 7 5 5z"/>
<glyph unicode="&#90;" d="M437 344l0 5-259 0c0 1 0 3-1 4-1 2-4 6-9 7l-3 1-91-83 1-3c3-6 8-10 14-10 1 0 2 0 2 0l64-114 63 0 0 38 105 0 1 1c29 16 52 34 71 53 15 16 26 33 33 50 13 30 10 51 9 51z m-348-69c-1 0-2 0-3 1l81 74c0-1 1-1 1-1 0-1 0-3 0-4l-2-4-70-65-4-1c0 0-1 0-3 0z m20 7c9-11 17-24 24-39 5-13 10-27 14-42 3-10 4-19 6-26l-54 97z m99-121l-47 0-1 2c-1 8-4 22-8 39-4 15-9 30-15 43-7 15-15 29-24 40l41 38c12-7 23-17 32-32 7-12 12-27 17-43 6-21 5-87 5-87z m211 136c-7-16-18-32-32-47-17-18-40-36-67-51l-107 0c-1 9 0 28-5 50-5 17-11 32-18 45-9 14-20 25-32 33l13 12 257 0c0-7-1-23-9-42z"/>
<glyph unicode="&#89;" d="M273 407l3 0 0 12-3 0 0 5 0 0 1 1c0 0 9 14 7 28l0 1 0 0c0 0-1 4-5 7-3 4-10 7-20 7-10 0-17-3-20-7-4-3-5-7-5-7l0 0 0-1c-2-14 7-28 7-28l1-1 0 0 0-5-3 0 0-12 3 0 0-2-5 0 0-6 1 0c0-1 4-7 4-7l0-335 17-13 17 13 0 335c0 0 4 6 4 7l1 0 0 6-5 0z m-32 5l0 2 30 0 0-2z m21 40c6-1 8-3 8-4 1-3 0-7-1-12 0 0 0 0 0-1l-7 0z m-25-3l0 0 0 0c-1-4 0-9 1-14-2 5-3 11-2 17 0 2 4 12 20 12 16 0 20-10 20-12 1-6 0-12-2-17 1 5 2 10 1 14l0 0 0 0c0 1-2 6-13 8l0 6-12 0 0-6c-11-1-13-7-13-8z m20 9l0-30-2 0 0 30z m-14-23c-1 4-2 9-1 13 0 1 2 3 8 4l0-17z m6-10l1 0 0-2 12 0 0 2 1 0 0-6-14 0z m14-18l0-7c0 0-4-1-7-1-3 0-7 1-7 1l0 7z m0-345l-7-6-7 6 0 325c2-1 4-1 7-1 3 0 5 0 7 1z m-7 329c-11 0-16 7-17 9l0 0 2 0c1-2 7-6 15-6 9 0 14 4 16 6l1 0 0 0c-1-2-6-9-17-9z m4-247c0-2-2-4-4-4-2 0-4 2-4 4 0 2 2 4 4 4 2 0 4-2 4-4z m-4 24c2 0 4-2 4-4 0-2-2-4-4-4-2 0-4 2-4 4 0 2 2 4 4 4z m4-43c0-3-2-4-4-4-2 0-4 1-4 4 0 2 2 3 4 3 2 0 4-1 4-3z m0-20c0-2-2-4-4-4-2 0-4 2-4 4 0 2 2 4 4 4 2 0 4-2 4-4z m0-20c0-2-2-3-4-3-2 0-4 1-4 3 0 2 2 4 4 4 2 0 4-2 4-4z"/>
<glyph unicode="&#71;" d="M333 348l13 73-3 2c-8 4-13 11-17 21-3 8-5 17-6 28-1 18 1 34 2 34l1 6-25 0 0-5c1-16 0-30-4-41-2-9-6-16-11-21-11-12-24-12-26-12-1 0-1 0-1 0l0 0 0 0c0 0-1 0-1 0-2 0-15 0-26 12-5 5-9 12-11 21-4 11-5 25-4 41l0 5-25 0 1-6c0 0 3-16 2-34-1-11-3-20-6-28-4-10-10-17-17-21l-3-2 13-73-55-315 0-4 2-1c1-1 13-7 34-14 13-4 27-7 41-10 18-3 36-4 55-4 43 0 76 7 96 14 22 7 33 13 34 14l2 1z m-78 75c1 0 1 0 1 0 0 0 0 0 1 0 4 0 20 1 33 15 1 1 3 3 4 5-2-5-5-10-8-13l0 0c0 0-2-3-7-6-5-2-12-6-23-6-10 0-18 3-23 6-5 3-7 6-7 6l0 0c-3 3-6 8-8 13 1-2 3-4 4-5 13-14 29-15 33-15z m-78-7c8 6 14 14 18 24 4 9 6 19 7 31 1 13 0 25-1 31l3 0c0-13 1-24 3-34 2-19 7-33 15-41 1-1 12-13 34-14l0 0c22 1 33 13 34 14 8 8 13 22 15 41 2 10 3 21 3 34l3 0c-1-6-2-18-1-31 1-12 3-22 7-31 4-10 10-18 18-24l-12-68c-3-1-7-3-14-5-11-4-29-7-53-7-24 0-42 3-53 7-7 2-11 4-14 5z m171-393c-19-6-51-13-92-13-41 0-73 7-92 13-15 5-25 9-30 11l54 309c3-1 7-3 13-5 11-3 30-7 55-7 25 0 44 4 55 7 6 2 10 4 13 5l54-309c-5-2-15-6-30-11z"/>
<glyph unicode="&#88;" d="M382 164c-23 0-43 5-57 14-12 8-24 20-34 36-10 16-17 33-20 50-1 4-2 7-2 10-1 2-1 4-1 6 0 0 0 0 0 0-1 3-7 5-13 5-6 0-10-2-10-4 0 0 0-1-1-1 0-2 0-4-1-6 0-3-1-6-2-10-3-17-10-34-21-50-10-16-22-28-34-36-13-8-33-13-56-13-5 0-11 0-17 1-15 1-28 5-40 10-11 5-20 12-25 21-9 12-15 24-19 36-5 13-7 25-7 39 0 0-1 2-2 4-2 2-4 3-4 4 0 0-1 0-2 0-2 1-6 3-8 4-3 1-6 5-6 11 0 9 1 24 3 29 1 5 8 8 11 8 22 7 64 16 109 16 8 0 16-1 23-1 18-1 42-5 56-10 13-4 24-9 31-14 0-1 1-1 1-1 1-1 2-1 2-2 2-2 5-3 7-3 0 0 1 0 1 0 4 1 8 2 11 2 5 0 9-1 14-3 0 0 1 0 1 0 1 0 2 0 4 1 0 1 0 1 1 1 0 1 0 1 1 2 7 7 18 12 34 17 15 5 38 8 56 9 7 1 14 1 22 1 46 0 88-8 110-15 3-1 10-4 11-9 2-5 3-19 3-28 0-7-3-10-6-12-2-1-6-2-8-3-1-1-2-1-2-1-1 0-2-2-4-4-1-2-2-3-2-4 0-13-3-26-7-39-4-12-11-24-19-36-5-8-14-15-26-21-11-5-24-8-39-10-6 0-12-1-17-1z m-105 121c0-1 0-2 0-2 1-2 1-4 2-7 0-3 1-6 1-10 3-15 10-32 20-47 9-14 20-26 31-33 11-7 30-12 51-12 5 0 10 1 16 1 13 2 26 5 36 10 10 4 17 10 22 16 16 24 24 46 24 70 0 7 8 15 12 17 0 0 1 1 3 1 2 1 4 2 6 3 1 0 1 1 1 3 0 8-1 21-2 25 0 0-2 1-5 2-4 2-48 15-107 15-7 0-15 0-22 0-16-1-39-5-53-9-14-5-25-10-31-16 0 0 0 0 0 0 0 0-1-1-1-1 0-1 0-1-1-1-2-2-6-4-10-4-2 0-3 1-5 1-3 1-6 2-10 2-2 0-5-1-8-1-2-1-3-1-4-1-6 0-11 4-13 5 0 0 0 0-1 1 0 0-1 1-2 1 0 0 0 0 0 0 0 0 0 0 0 0-5 5-13 9-28 14-14 5-37 8-53 9-8 0-15 1-23 1-58 0-102-14-106-15-3-1-4-2-5-2-1-4-2-17-2-25 0-2 0-3 1-3 2-1 4-2 6-3 2-1 3-1 3-1 4-2 12-10 12-17 0-24 8-46 24-70 4-7 12-12 22-17 10-5 22-8 36-9 5-1 11-1 16-1 21 0 39 4 51 11 11 7 22 19 31 33 10 15 17 32 20 47 0 4 1 7 1 10 1 3 2 5 2 8 0 0 0 1 1 2 3 6 11 9 19 9 11 0 19-4 22-10z m-147-101c-13 0-27 2-38 6-13 4-23 10-28 18-11 16-18 34-20 50-2 10-2 19 0 27 2 9 6 17 12 24 6 7 19 12 29 14 13 3 29 5 45 5 21 0 40-3 56-8 9-3 17-8 23-13 8-7 13-16 13-25 0-16-5-34-14-51-9-16-21-29-32-37-11-6-27-10-46-10z m0 139c-32 0-62-7-71-17-5-7-8-14-10-22-2-8-2-16 0-25 2-15 9-33 19-48 5-7 14-12 25-16 11-4 24-6 37-6 18 0 33 3 43 10 10 6 22 19 30 34 9 17 14 34 14 48-1 19-18 29-33 34-15 6-33 8-54 8z m252-139c-19 0-35 3-46 10-11 7-23 21-32 37-9 17-14 35-14 50 0 10 5 19 13 26 6 5 14 9 23 13 16 5 35 8 55 8 16 0 33-2 46-5 10-3 23-7 29-15 6-7 10-15 12-24 2-8 2-17 0-26-2-17-10-34-21-51-5-7-14-13-27-18-11-3-25-5-38-5z m-1 139c-20 0-38-3-53-8-15-5-32-15-33-34 0-14 4-32 14-48 8-15 19-28 30-35 9-6 25-9 43-9 13 0 26 1 37 5 11 4 20 10 24 16 11 16 18 33 20 48 2 9 2 18 0 25-2 8-5 16-10 22-9 10-39 18-72 18z"/>
<glyph unicode="&#87;" d="M375 314l0 72c0 41-12 73-35 95-31 29-70 31-82 31-1 0-1 0-2 0-1 0-1 0-2 0-12 0-51-2-82-31-23-22-35-54-35-95l0-72-130 0 0-300c0-8 6-14 13-14l472 0c7 0 13 6 13 14l0 300z m-119 157l1 0c0 0 0 0 1 0 6 0 34-1 53-20 15-14 23-36 23-65l0-72-156 0 0 72c0 29 8 51 23 65 19 19 47 20 53 20 1 0 1 0 1 0z m101-190l8 14 0-28z m8 25l-11-20-10 20 0 1 21 0 0-1z m-13-25l-9-14 0 28z m2-5l11-18-21 0z m-175 198c28 26 64 28 75 28 1 0 1 0 2 0l0 0c1 0 1 0 2 0 11 0 47-2 75-28 21-20 32-50 32-88l0-74-22 0 0 74c0 32-8 56-25 72-9 9-21 15-36 19-11 3-20 3-24 3-1 0-1 0-1 0l-1 0-1 0c0 0 0 0-1 0-4 0-13 0-24-3-15-3-27-10-36-19-17-16-25-40-25-72l0-74-22 0 0 74c0 38 11 68 32 88z m-10-168l-11-20-11 20 0 1 22 0 0-1z m-14-25l-8-14 0 28z m3-5l10-18-21 0z m11-9l-9 14 9 15z m327-253c0-2-2-4-4-4l-472 0c-2 0-4 2-4 4l0 290 121 0 0-56 41 0 0 56 156 0 0-56 41 0 0 56 121 0 0-290z"/>
<glyph unicode="&#65;" d="M468 150l44 43-145 204-1 1-51 14-30 17-2-1c0 0-15-1-27-1-12 0-27 1-27 1l-1 1-31-17-51-14-146-204 44-44 101 123 5-68-7-122 103 0 1 0c0 0 3 1 7 3 0 0 1 1 2 2 1-1 2-2 2-2 4-2 7-3 7-3l1 0 103 0-7 122 5 68z m31 45l-30-30-104 126c-6 32-6 57-5 73 1 9 2 16 3 21z m-240 113l-24 98c4-1 12-1 21-1 10 0 18 1 22 1z m-26 86l-12-15-11 0-7 24 24 14z m-8-19l9 13 23-92-2-10-41 72z m33-95l21 106 8-11 11-17-40-93 0 15z m33 99l-11 13 5 25 24-14-7-24z m-11 39l-1-6c-3-1-12-3-23-3-11 0-19 2-22 2l-2 7c6 0 15-1 24-1 9 0 19 1 24 1z m-237-253l-30 30 136 190c1-5 2-12 3-21 1-16 1-41-5-73z m203-72l-92 0 3 65 67 0 8 7 0 19-74 0 1 21 1 0-7 90c5 31 5 54 4 70-1 11-3 20-4 25l45 12 8-28 12 0-10-16 46-80 0-179c0 0-2-6-8-6z m-85 70l0 16 66 0 0-12-5-4z m105-70c-8 0-8 6-8 6l0 154 46 105-10 16 12 0 8 28 45-12c-1-5-2-14-3-25-3-26 0-51 3-70l-6-89 0-1 1-21-74 0 0-19 8-7 67 0 3-65z m85 86l0-16-61 0-5 4 0 12z m-82 72c0-3-2-5-5-5-3 0-5 2-5 5 0 2 2 4 5 4 3 0 5-2 5-4z m0-49c0-3-2-5-5-5-3 0-5 2-5 5 0 3 2 5 5 5 3 0 5-2 5-5z m76 110l-50 0 0 6 50 0z"/>
<glyph unicode="&#76;" d="M335 307l0 14-158 0 0-14-14-40-1-5 4-1c0 0 13-6 28-17 14-10 34-27 47-50l2-3 26 0 2 3c13 23 33 40 47 50 16 11 28 17 28 17l5 1z m-10 4l0-3-51 0 0 2-15 0-2-1c0 0-1 0-1 0 0 0-1 0-1 0l-1 1-16 0 0-2-51 0 0 3z m-73-19l-6-10-2 3z m7 8c0-2-1-3-3-3-2 0-3 1-3 3 0 2 1 4 3 4 2 0 3-2 3-4z m-11-2l-5 0 0 7 6 0c-1-2-1-3-1-5 0 0 0-1 0-2z m20-13l-2-3-5 10z m-5 20l6 0 0-7-5 0c0 1 0 2 0 2 0 2 0 3-1 5z m-76-2l51 0 0-10 8 0-9-7 10-13 9 16 9-16 10 13-9 7 8 0 0 10 51 0 10-28c-2 1-6 3-10 4-7 3-15 3-22 2-9-2-18-7-26-14-1 0-7-6-12-18-3-7-4-14-5-22 0-8 1-17 3-26l-14 0c2 9 3 18 3 26-1 8-2 15-5 22-5 12-11 18-12 18-8 7-17 12-26 14-7 1-15 1-22-2-4-1-8-3-10-4z m39-73c-8 8-17 16-26 22-11 8-20 13-25 15 3 3 8 6 13 7 7 3 14 3 20 2 8-2 16-6 24-13l0 0c0 0 6-5 10-16 3-6 4-13 5-20 0-7 0-14-2-21-5 8-12 17-19 24z m86 22c-9-6-18-14-26-22-7-7-14-16-19-24-2 7-2 14-2 20 1 8 2 15 5 21 3 9 8 14 10 16l0 0c8 7 16 11 24 13 6 1 13 1 20-2 5-1 10-4 13-7-5-2-14-7-25-15z"/>
<glyph unicode="&#77;" d="M349 403l0 0-5 94 0 15-174 0 0-15-7-94 0 0-1-204 0 0 1-199 82 0 12 273 12-273 78 0 3 199 0 0z m-14 70c-14 0-32 3-43 10-3 3-5 5-6 7l48 0z m-1 22l-55 0 0 7 55 0 0-5z m-80 0l-14 0 0 7 14 0z m5-5l9 0 0-52c0-6-5-11-9-14z m0 5l0 7 15 0 0-7-15 0z m-79 2l0 5 56 0 0-7-4 0c0 0 0 0 0 0l-52 0 0 2z m-1-15l18 0 0-7c-6-1-13-2-19-2z m0 5l0 3 49 0c-1-2-3-4-6-6-6-4-13-7-20-8l0 11z m56-477l-62 0-1 189 1 203 5 66c43 1 53 17 56 22l2 0 0-2 4 0 0 2 14 0 0-106z m102 0l-59 0-19 374 0 34c2 1 4 2 6 5 5 4 8 10 8 15l0 52 1 0 0-2 5 0 0 2 1 0c2-5 12-21 55-22l4-66 1-203z m-70 489c0-2-2-4-3-4-2 0-3 2-3 4 0 1 1 3 3 3 1 0 3-2 3-3z"/>
<glyph unicode="&#67;" d="M477 164l35 35-145 203-1 2-59 15-8 15-2 5-4-3c-1 0-10-4-37-4-27 0-36 4-37 4l-4 3-10-20-59-15-146-205 35-35 109 116 6-69-6-117-1-5 5 0c1 0 36 0 58-8 2-1 22-8 50-8 28 0 49 7 50 8 22 8 57 8 58 8l5 0-7 122 6 69z m0 14l-12 13 23 24 11-15z m8 42l-23-25-97 102c-6 32-6 57-5 73 1 9 2 16 3 21z m-266 206c1 0 1 0 2 0l28-25-14-13-22 25z m39-243c0 1-1 1-2 1-1 0-2 0-3-1l0 33c1-1 2-2 3-2 1 0 2 0 2 1z m0 36c0 1-1 1-2 1-1 0-2-1-3-2l0 33c1 0 2-1 3-1 1 0 2 0 2 1z m0 36c0 0-1 1-2 1-1 0-2-1-3-2l0 33c1-1 2-1 3-1 1 0 2 0 2 1z m0 36c0 0-1 1-2 1-1 0-2-1-3-2l0 33c1-1 2-2 3-2 1 0 2 1 2 2z m0 35c0 1-1 1-2 1-1 0-2 0-3-1l0 33c1-1 2-2 3-2 1 0 2 1 2 1z m0 36c0 1-1 1-2 1-1 0-2 0-3-1l0 33c1-1 2-2 3-2 1 0 2 1 2 1z m0 42l-4 0-7 6 18 0z m-4-5l1 0c-1 0-1-1-2-2l0 1z m-1-219c1-1 2-2 3-2 1 0 2 1 2 1l0-32c0 1-1 1-2 1-1 0-2 0-3-1z m5 218c0 0-1 1-1 1l1 0 0 0z m5 3l28 25c1 0 1 0 2 0l6-13-22-25z m19 23l-11-9-30 0-11 9c7-1 15-2 26-2 11 0 19 1 26 2z m-247-246l-22 22 11 15 23-24z m16 17l-24 25 122 171c1-5 2-12 3-21 1-16 1-41-5-73z m159-105c-19 7-45 8-56 9l5 112 0 0-6 90c5 30 5 54 3 69-1 12-2 20-3 25l56 15 24-28c1 0 1 0 2 0 0 0 0 0 0 0 1 0 1 0 2 0l12 12 0-311c-23 1-39 7-39 7z m43-7l0 61c1-1 2-2 3-2 1 0 2 1 2 2l0-61c0 0-1 0-2 0-1 0-2 0-3 0z m49 7l0 0c0 0-16-6-39-7l0 311 12-12c1 0 1 0 2 0 0 0 0 0 0 0 1 0 1 0 2 0l24 28 56-15c-1-5-2-13-3-25-3-25 0-50 3-69l-6-90 0 0 5-112c-11-1-37-2-56-9z"/>
<glyph unicode="&#86;" d="M240 0c-18 0-34 9-44 25l0 0c0 0-6 9-11 24-2 9-4 18-4 27-1 11 0 23 3 35l0 0c0 0 13 48 21 78l0 0c0 0 8 25 3 47-1 2-10 31-22 53-1 1-6 9-11 20-4 12-10 29-12 47 0 1-1 18 0 40 1 30 6 54 15 72 0 0 4 9 13 19 11 13 24 21 38 24 1 0 4 1 6 1 2 0 4 0 6 0 5 0 11-1 16-2l0 0c1-1 10-4 15-7 14-9 27-22 38-38 9-13 17-29 23-46 11-30 14-54 14-56 4-30 3-54 1-69-2-16-5-26-5-27-2-6-12-35-12-36-10-33-15-72-15-75-1-17-1-49-1-49l0 0c-1-20-4-37-10-52-5-13-11-23-19-32-13-14-26-19-27-19-4-2-9-3-13-4-2 0-4 0-6 0z m-37 31l1-1c8-13 22-20 36-20 2 0 3 0 5 0 3 1 7 1 11 3l2 1 0 0c3 1 12 6 21 16 7 8 13 18 17 29 5 14 8 30 9 48 0 1 1 33 1 50l0 0c0 2 5 42 15 77l0 0c0 0 10 30 12 36l0 1c0 0 3 9 5 24 2 15 3 38-1 67l0 0c0 0-3 25-13 54-6 16-14 31-22 43-10 16-22 28-35 35l-1 0 0 1c-3 2-10 4-12 5-4 2-9 2-13 2-2 0-3 0-5 0-1 0-4-1-5-1l0 0c-8-1-20-6-33-20-7-9-11-18-12-18l0 0c-19-38-13-105-13-106 2-33 21-62 21-63l0 0c13-23 23-54 23-56l0 0c6-24-2-49-3-52-8-29-20-76-21-77-2-11-3-22-3-32 1-9 2-17 5-25 3-11 7-18 8-21z"/>
<glyph unicode="&#78;" d="M351 250l0 1-6 96 0 15-177 0 0-15-7-96 0-101 190 0z m-13 47c-6 18-14 36-15 43l13 0z m-3 48l-76 0 0 7 76 0 0-5z m-76-5l9 0 0-53c0-7-5-12-9-15z m-81 7l0 5 76 0 0-7-76 0 0 1z m0-7l12 0c-1-7-9-24-15-42z m71-180l-78 0 0 90 3 31c10 23 20 51 21 59l59 0 0-109z m16 0l-6 71 0 35c2 1 4 3 7 5 5 5 7 10 7 16l0 53 44 0c2-8 12-36 22-60l2-30 0-90-76 0z m2 188c0-2-1-3-3-3-2 0-3 1-3 3 0 2 1 3 3 3 2 0 3-1 3-3z"/>
<glyph unicode="&#75;" d="M344 332l-8 6-12 28-136 0-12-28-8-6-43-155 3-3c1-1 29-28 128-28 99 0 127 27 128 28l3 3z m-150 24l124 0 8-20c-3-1-7-2-13-3-21-3-43-4-57-4-26 0-45 2-56 4-7 1-11 2-14 3z m-57-176l40 147 6 5c7-2 20-5 40-7l-15-166c-17 2-33 5-48 10-13 4-20 9-23 11z m76-22l15 167c8-1 18-1 28-1 11 0 20 0 28 1l15-167c-15-1-30-2-43-2-13 0-28 1-43 2z m139 11c-15-5-31-8-48-10l-15 166c20 2 34 5 40 7l6-5 40-147c-3-2-10-7-23-11z"/>
<glyph unicode="&#74;" d="M465 281l30 31-157 200-32 0-1-5c0-16-3-29-9-40-4-9-9-16-16-21-11-8-22-9-24-9 0 0 0 0 0 0l0 0c0 0 0 0 0 0-2 0-13 1-24 9-7 5-12 12-16 21-6 11-9 24-9 40l-1 5-32 0-157-200 30-31 122 127 10-60c-2-5-8-31-15-63-10-47-15-83-15-108 0-57 5-145 5-145l0-3 1-1c1 0 9-7 26-14 10-4 21-7 32-10 13-3 28-4 43-4 15 0 30 1 43 4 11 3 22 6 32 10 17 7 25 14 26 14l1 1 0 3c0 0 5 88 5 145 0 25-5 61-15 108-7 32-13 58-15 63l10 60z m17 31l-17-17-124 129c-2 12-6 42-4 73z m-275 150c4-10 11-18 19-24 14-10 28-11 30-10 2-1 16 0 30 10 8 6 15 14 19 24 2 3 3 6 4 9-2-12-6-27-15-37-9-11-22-16-38-16-16 0-29 5-38 16-9 10-13 25-15 37 1-3 2-6 4-9z m-160-167l-16 17 144 185c2-31-2-61-5-73z m306-118c0-52-4-128-4-143-3-2-11-7-22-11-15-6-39-13-71-13-32 0-56 7-71 13-11 4-19 9-22 11 0 15-4 91-4 143 0 51 24 147 29 166 3-1 7-3 13-5 11-3 30-7 55-7 25 0 44 4 55 7 6 2 10 4 13 5 5-19 29-115 29-166z m-30 171c-8-4-31-12-67-12-24 0-42 3-53 7-7 2-11 4-14 5l-13 77c0 5 2 12 3 21 1 14 3 35 1 56l17 0c0-1 0-2 0-4 0-5 0-11 0-19 1-9 2-17 5-25 3-9 7-17 12-23 10-12 24-18 42-18 18 0 32 6 42 18 5 6 9 14 12 23 3 8 4 16 5 25 0 8 0 14 0 19 0 2 0 3 0 4l17 0c-2-21 0-42 1-56 1-9 2-17 3-22z"/>
<glyph unicode="&#72;" d="M334 342l12 123-4 2c-10 3-20 5-30 5-14 0-25-4-35-7-8-2-14-4-21-4 0 0 0 0 0 0l0 0c-6 0-13 2-21 4-10 3-21 7-35 7-10 0-20-2-30-5l-4-2 12-123-56-272 3-2c1 0 13-7 35-14 12-4 26-7 40-9 18-3 37-5 56-5 43 0 76 8 96 14 22 7 34 14 35 14l3 2z m-157 116c8 3 15 4 23 4 13 0 23-3 32-6 8-3 16-5 24-5 0 0 0 0 0 0 0 0 0 0 0 0 8 0 16 2 24 5 9 3 19 6 32 6 8 0 15-1 23-4l-11-116c-3-1-8-3-14-5-11-4-29-7-54-7-25 0-43 3-54 7-6 2-11 4-14 5z m172-395c-35-10-70-13-93-13-42 0-74 7-93 13-15 5-25 10-29 12l53 262c4-1 8-3 14-5 11-3 30-7 55-7 25 0 44 4 55 7 6 2 10 4 14 5l53-262c-4-2-14-7-29-12z"/>
<glyph unicode="&#68;" d="M501 215l-6 11-128 180-61 16-8 5-4 2-2-3c-1-1-10-8-36-8-26 0-35 7-36 8l-2 3-12-7-61-16-128-180 0 0-5-11-12-15 32-31 13 14 12 10 86 88 0-150c0-3-1-18 6-27l0-21 214 0 0 21c7 9 6 24 6 27l0 150 85-88 1 0 12-10 13-14 32 31z m-201 199c-1-3-4-8-8-12-4-5-8-8-14-11-6-3-14-5-22-5-8 0-16 2-22 5-6 3-10 6-14 11-4 4-7 9-8 12l4 3c0 0 1-1 1-1 1-2 3-6 6-10 9-10 20-15 33-15 13 0 24 5 33 15 3 4 5 8 6 10 0 0 1 1 1 1z m-65-12c6-1 13-1 21-1 8 0 15 0 21 1-6-4-13-6-21-6-8 0-15 2-21 6z m52 10c-1-1-1-2-2-3 0 0 0 0-1 0-1-1-9-4-28-4-19 0-27 3-28 4 0 0-1 0-1 0-1 1-1 2-2 4 7-3 17-5 31-5 15 0 25 2 31 4z m-255-229l-19 18 5 6 18-18z m19 17l-11-8-20 19 5 10 123 172c1-5 2-12 3-21 2-16 2-41-4-73z m108-107l0 10 194 0 0-10z m196 16l-1-1-196 0-1 1c-4 4-5 15-5 21l0 173c6 30 5 54 4 69-1 12-3 21-4 26l55 14c2-3 4-8 9-13 4-5 10-9 15-12 8-4 16-6 25-6 9 0 17 2 25 6 6 3 11 7 15 12 5 5 7 10 9 13l55-14c-1-5-3-14-4-26-1-15-2-39 4-69l0-173c0-4-1-16-5-21z m106 91l-96 99c-6 32-6 57-4 73 1 9 2 16 3 21l123-172 5-10-20-19z m19-17l-4 6 18 18 5-6z"/>
<glyph unicode="&#70;" d="M380 282c-1 0-9 1-17 11-7 8-11 20-13 36-2 21 0 47 6 79l0 5-44 11-3 1-2-3c0 0-4-6-12-11-12-8-25-12-39-12-15 0-28 4-39 12-8 5-12 11-12 11l-2 3-48-12 1-5c6-32 8-58 6-79-2-16-7-28-13-36-8-10-16-11-17-11l-5 0 0-195 258 0 0 190 0 5z m-169 121c16-12 33-14 45-14 21 0 36 7 45 14 2 1 4 3 6 5 0-1 0-2 0-3-1-1-5-6-12-10-13-9-28-10-39-10-19 0-32 5-40 10-6 4-10 9-11 10 0 1 0 2 0 3 1-2 4-4 6-5z m94-7c-1-5-3-11-5-16-4-11-9-20-16-26-8-8-17-12-28-12-11 0-20 4-28 12-7 6-12 15-16 26-2 5-4 11-5 16 2-2 4-3 6-5 8-5 22-11 43-11 21 0 34 6 42 11 3 2 5 3 7 5z m70-299l-238 0 0 176c1 0 2 1 4 1 6 2 11 7 15 12 8 10 13 24 15 41 3 21 2 47-4 78l32 9c1-8 3-21 8-35 4-12 10-22 17-29 9-9 20-13 32-13 12 0 23 4 32 13 7 7 12 17 17 29 5 14 7 27 8 35l32-9c-6-31-7-57-4-78 2-17 7-31 14-41 5-5 10-10 16-12 2 0 3-1 4-1l0-176z"/>
<glyph unicode="&#69;" d="M381 403l-68 18-5 4-3 2-3-2c0-1-14-8-46-8-32 0-46 7-46 8l-3 2-8-6-68-18-75-79 44-69 28 12 0-182 256 0 0 182 28-12 44 69z m-162-5c5-6 10-11 16-14 7-5 14-7 21-7 7 0 14 2 22 7 5 3 10 8 15 14 6 6 9 12 12 16l2-1c-2-4-5-11-11-18-5-6-10-11-16-15-7-4-15-6-24-6-8 0-16 2-24 6-6 4-11 9-16 15-5 7-9 14-11 18l2 2c3-5 6-11 12-17z m2 5c8-2 20-5 35-5 15 0 27 3 35 5-8-10-20-21-35-21-6 0-13 2-19 6-5 3-10 8-15 13 0 1-1 2-1 2z m76 9c0-1-1-1-1-2-4-1-20-7-40-7-20 0-36 6-40 7 0 1-1 1-1 2 8-3 21-5 41-5 20 0 33 2 41 5z m-193-144l-35 55 64 68c2-6 4-14 5-25 2-19 3-48-5-86z m34-173l0 184c3 17 5 33 6 48 1 14 0 27-1 39-2 13-4 23-6 28l64 17c2-5 5-12 11-19 5-7 11-12 18-16 8-5 17-7 26-7 9 0 18 2 26 7 7 4 13 9 18 16 6 7 9 14 11 19l64-17c-2-5-4-14-6-27-1-13-2-26-1-39 1-16 3-32 6-48l0-185-236 0z m270 173l-29 12c-8 38-7 68-5 86 1 11 3 19 5 25l64-68z"/>
<glyph unicode="&#105;" d="M416 512l96-96-160-160 160-160-96-96-160 160-160-160-96 96 160 160-160 160 96 96 160-160z"/>
<glyph unicode="&#104;" d="M512 492l-20 20-236-236-236 236-20-20 236-236-236-236 20-20 236 236 236-236 20 20-236 236z"/>
<glyph unicode="&#101;" d="M256 512l-160-192 320 0z m0-512l160 192-320 0z"/>
<glyph unicode="&#102;" d="M394 492l-20 20-256-256 256-256 20 20-235 236z"/>
<glyph unicode="&#100;" d="M256 512c-141 0-256-115-256-256 0-141 115-256 256-256 141 0 256 115 256 256 0 141-115 256-256 256z m0-480l0 448c124 0 224-100 224-224 0-124-100-224-224-224z"/>
<glyph unicode="&#49;" d="M155 282c0 2 1 3 3 3l3 0c1 0 2-1 3-2l13-39c1-3 3-8 3-8l0 0c0 0 1 5 2 8l14 39c0 1 1 2 3 2l3 0c2 0 3-1 2-3l-19-53c-1-1-2-2-3-2l-4 0c-2 0-3 1-3 2z m56 0c0 2 1 3 3 3l3 0c2 0 2-1 2-3l0-52c0-2 0-3-2-3l-3 0c-2 0-3 1-3 3z m16 0c0 2 1 3 3 3l16 0c5 0 8-1 11-2 5-2 9-7 9-15 0-7-4-14-11-16l0 0c0 0 1-1 2-3l10-19c2-2 1-3-1-3l-4 0c-1 0-2 1-3 2l-11 21-13 0 0-20c0-2 0-3-2-3l-3 0c-2 0-3 1-3 3z m20-25c6 0 10 4 10 11 0 4-1 7-5 9-1 1-3 1-7 1l-10 0 0-21 12 0z m39 21l-17 0c-2 0-3 1-3 3l0 1c0 2 1 3 3 3l42 0c2 0 3-1 3-3l0-1c0-2-1-3-3-3l-17 0 0-48c0-2-1-3-3-3l-2 0c-2 0-3 1-3 3z m32 4c0 2 1 3 3 3l3 0c1 0 2-1 2-3l0-34c0-9 6-15 15-15 9 0 15 6 15 15l0 34c0 2 1 3 2 3l3 0c2 0 3-1 3-3l0-34c0-13-9-22-23-22-14 0-23 9-23 22l0 34z m52-46l1 2c1 1 2 1 4 0 2-1 6-4 12-4 7 0 11 3 11 8 0 13-28 10-28 28 0 10 8 16 18 16 7 0 13-3 15-4 1-1 2-3 1-4l-1-2c-1-2-3-2-4-1-2 1-6 3-11 3-6 0-10-3-10-8 0-12 28-9 28-27 0-10-7-17-19-17-8 0-14 4-17 6-1 1-2 2 0 4z m42 46c0 2 1 3 3 3l3 0c2 0 2-1 2-3l0-52c0-2 0-3-2-3l-3 0c-2 0-3 1-3 3z m15-51c0 1 1 2 1 3l27 39c2 3 4 5 4 5l0 0c0 0-1 0-4 0l-24 0c-1 0-2 1-2 3l0 1c0 2 1 3 2 3l36 0c1 0 2-1 2-3l0-1c0-1 0-2-1-3l-26-39c-3-3-5-5-5-5l0 0c0 0 2 0 5 0l25 0c2 0 3-1 3-3l0-1c0-2-1-3-3-3l-37 0c-2 0-3 1-3 3l0 1z m50 51c0 2 1 3 3 3l29 0c2 0 3-1 3-3l0-1c0-2-1-3-3-3l-24 0 0-18 24 0c2 0 3-1 3-3l0-2c0-1-1-2-3-2l-24 0 0-19 24 0c2 0 3-1 3-3l0-1c0-2-1-3-3-3l-29 0c-2 0-3 1-3 3l0 52z m-450-20l-2-3 15 0 7 14z m37-49l3-1 0 14-14 8z m-38 35l-15 8 56 30 0 14-64-35c0 0-3-2-3-4 0-3 0-7 0-10 0-3 3-4 3-4l33-19z m49 51l-2 1 0-14 14-8z m-13 1l8 14 30-55 14 0-35 64c0 0-2 3-4 3-3 0-7 0-10 0-3 0-4-3-4-3l-19-34z m16-88l-8-14-30 55-15 0 36-64c0 0 1-3 4-3 3 0 7 0 10 0 2 0 4 3 4 3l18 34z m59 53l-34 19 11-20 14-8-55-30 0-14 64 35c0 0 3 1 3 4l0 10c0 2-3 4-3 4z m-24-15l1 3-14 0-8-14z"/>
<glyph unicode="&#98;" d="M32 128l-32-32 0-96 96 0 32 32-96 0z m384 384l-384-384 96-96 384 384z"/>
<glyph unicode="&#103;" d="M353 256l-235-236 20-20 256 256-256 256-20-20z"/>
<glyph unicode="&#48;" d="M174 318l-28-51-53 0 5 9z m62-220l9-5 0 53-51 28z m-142 130l-52 28 203 110 0 53-236-130c0 0-9-6-9-16 0-10 0-25 0-35 0-10 9-15 9-15l124-68z m182 186l-9 5 0-53 51-28z m-48 4l28 52 110-203 53 0-130 236c0 0-6 9-15 9-10 0-26 0-36 0-9 0-15-9-15-9l-68-124z m56-324l-28-52-110 203-53 0 130-236c0 0 6-9 15-9 10 0 26 0 36 0 9 0 15 9 15 9l68 124z m219 195l-124 68 39-73 52-28-203-110 0-53 236 130c0 0 9 5 9 15l0 35c0 10-9 16-9 16z m-89-53l5 9-53 0-27-51z"/>
<glyph unicode="&#97;" d="M352 480l0 32-192 0 0-512 192 0 0 64-64 0 0 32 64 0 0 32-128 0 0 32 128 0 0 32-64 0 0 32 64 0 0 32-64 0 0 32 64 0 0 32-64 0 0 32 64 0 0 32-64 0 0 32 64 0 0 32-128 0 0 32z"/>
<glyph unicode="&#99;" d="M352 448c0 0 0 5 0 32 0 33-32 32-32 32l-128 0c0 0-32-1-32-32 0-27 0-32 0-32l-128 0 0-64 64 0 0-384 320 0 0 384 64 0 0 64z m-160-416l-64 0 0 352 64 0z m96 0l-64 0 0 352 64 0z m96 0l-64 0 0 352 64 0z"/>
<glyph unicode="&#85;" d="M80 345l0-168c0-5 5-10 10-10l332 0c5 0 10 5 10 10l0 168z m345-8l0-57-126-49c0 0-17-7-43-7-26 0-43 7-43 7l-126 49 0 57z m-3-162l-332 0c-1 0-3 1-3 2l0 99 124-49c1 0 18-6 45-6 27 0 44 6 45 6l124 49 0-99c0-1-2-2-3-2z m-166 58c4 0 8 4 8 9 0 4-4 8-8 8-5 0-8-4-8-8 0-5 4-9 8-9z m0 13c2 0 4-2 4-4 0-3-2-5-4-5-3 0-5 2-5 5 0 2 3 4 5 4z"/>
</font>
</defs>
</svg>
